# xmcd CD database file
#
# Track frame offsets:
#	150
#	18537
#	47002
#	81330
#	118378
#	153555
#	195723
#	240381
#	270867
#
# Disc length: 3938 seconds
#
# Revision: 0
# Processed by: cddbd v1.4PL0 Copyright (c) Steve Scherf et al.
# Submitted via: CDex 1.51
#
DISCID=720f6009
DTITLE=Antoine Herve Trio - Fluide
DYEAR=1996
DGENRE=Jazz
TTITLE0=Caravan
TTITLE1=My Romance
TTITLE2=Infant Eyes
TTITLE3=Select People
TTITLE4=All Blues 
TTITLE5=Bill Hit's Tune 
TTITLE6=Well, You Needn't 
TTITLE7=Je Suis Venu Te Dire 
TTITLE8=Rhythm-A-Ning 
EXTD=YEAR: 1996
EXTT0=
EXTT1=
EXTT2=
EXTT3=
EXTT4=
EXTT5=
EXTT6=
EXTT7=
EXTT8=
PLAYORDER=
